<?xml version="1.0" encoding="UTF-8"?>
<svg xmlns="http://www.w3.org/2000/svg" version="1.1" width="1540" height="780" viewBox="0 0 1540 780">
  <title>multicli-evpn-prod (kitchen-sink) — 2 spines, 2 RR, 4 leaves (MLAG+EVPN-MH), 2 BL, 1 edge, 10 hosts</title>
  <desc>topology rendered from containerlab YAML — kept in sync with topology.drawio</desc>
  <style>
    .lbl { font-family: Arial, sans-serif; font-size: 12px; font-weight: bold; fill: #FFFFFF; text-anchor: middle; }
    .sub { font-family: Arial, sans-serif; font-size: 10px; fill: #FFFFFF; text-anchor: middle; }
    .hd  { font-family: Arial, sans-serif; font-size: 16px; font-weight: bold; fill: #222222; text-anchor: middle; }
    .lnk { stroke: #444444; stroke-width: 2; fill: none; }
    .lnk2 { stroke: #666666; stroke-width: 1.5; fill: none; }
  </style>
  <text class="hd" x="770" y="38">multicli-evpn-prod (kitchen-sink) — 2 spines, 2 RR, 4 leaves (MLAG+EVPN-MH), 2 BL, 1 edge, 10 hosts</text>
  <line class="lnk" x1="360" y1="140" x2="180" y2="370"/>
  <line class="lnk" x1="360" y1="140" x2="440" y2="370"/>
  <line class="lnk" x1="440" y1="105" x2="600" y2="410"/>
  <line class="lnk" x1="440" y1="105" x2="840" y2="410"/>
  <line class="lnk" x1="440" y1="105" x2="1080" y2="410"/>
  <line class="lnk" x1="440" y1="105" x2="1300" y2="410"/>
  <line class="lnk" x1="480" y1="105" x2="300" y2="410"/>
  <line class="lnk" x1="560" y1="140" x2="440" y2="370"/>
  <line class="lnk" x1="560" y1="140" x2="710" y2="370"/>
  <line class="lnk" x1="640" y1="105" x2="840" y2="410"/>
  <line class="lnk" x1="640" y1="105" x2="1080" y2="410"/>
  <line class="lnk" x1="640" y1="105" x2="1300" y2="410"/>
  <line class="lnk" x1="360" y1="140" x2="380" y2="200"/>
  <line class="lnk" x1="480" y1="105" x2="460" y2="245"/>
  <line class="lnk" x1="440" y1="105" x2="480" y2="245"/>
  <line class="lnk" x1="560" y1="140" x2="560" y2="200"/>
  <line class="lnk" x1="300" y1="410" x2="320" y2="410"/>
  <line class="lnk2" x1="180" y1="450" x2="105" y2="580"/>
  <line class="lnk2" x1="320" y1="410" x2="180" y2="610"/>
  <line class="lnk2" x1="180" y1="450" x2="275" y2="580"/>
  <line class="lnk2" x1="440" y1="450" x2="275" y2="580"/>
  <line class="lnk2" x1="300" y1="410" x2="370" y2="610"/>
  <line class="lnk2" x1="440" y1="450" x2="445" y2="580"/>
  <line class="lnk2" x1="710" y1="450" x2="635" y2="580"/>
  <line class="lnk2" x1="840" y1="410" x2="710" y2="610"/>
  <line class="lnk2" x1="710" y1="450" x2="795" y2="580"/>
  <line class="lnk2" x1="950" y1="450" x2="795" y2="580"/>
  <line class="lnk2" x1="820" y1="410" x2="880" y2="610"/>
  <line class="lnk2" x1="950" y1="450" x2="955" y2="580"/>
  <line class="lnk2" x1="710" y1="450" x2="675" y2="670"/>
  <line class="lnk2" x1="950" y1="450" x2="955" y2="670"/>
  <line class="lnk2" x1="1180" y1="450" x2="1135" y2="580"/>
  <line class="lnk2" x1="1400" y1="450" x2="1395" y2="580"/>
  <line class="lnk" x1="1180" y1="370" x2="1380" y2="140"/>
  <line class="lnk" x1="1400" y1="370" x2="1380" y2="140"/>
  <rect x="280" y="70" width="160" height="70" rx="8" fill="#4A90E2" stroke="#1F4E8C" stroke-width="2"/>
  <text class="lbl" x="360" y="92">spine1</text>
  <text class="sub" x="360" y="110">ASN 65000</text>
  <text class="sub" x="360" y="124">RID 10.255.0.1</text>
  <rect x="480" y="70" width="160" height="70" rx="8" fill="#4A90E2" stroke="#1F4E8C" stroke-width="2"/>
  <text class="lbl" x="560" y="92">spine2</text>
  <text class="sub" x="560" y="110">ASN 65001</text>
  <text class="sub" x="560" y="124">RID 10.255.0.2</text>
  <rect x="1280" y="70" width="200" height="70" rx="8" fill="#95A5A6" stroke="#5C6566" stroke-width="2"/>
  <text class="lbl" x="1380" y="92">edge1</text>
  <text class="sub" x="1380" y="110">[edge / DCGW]</text>
  <text class="sub" x="1380" y="124">ASN 65200, RID 10.255.30.1</text>
  <rect x="300" y="200" width="160" height="90" rx="8" fill="#9B59B6" stroke="#5E3370" stroke-width="2"/>
  <text class="lbl" x="380" y="222">rr1</text>
  <text class="sub" x="380" y="240">ASN 65100</text>
  <text class="sub" x="380" y="254">RID 10.255.1.1</text>
  <text class="sub" x="380" y="268">cluster 0.0.0.100</text>
  <rect x="480" y="200" width="160" height="90" rx="8" fill="#9B59B6" stroke="#5E3370" stroke-width="2"/>
  <text class="lbl" x="560" y="222">rr2</text>
  <text class="sub" x="560" y="240">ASN 65100</text>
  <text class="sub" x="560" y="254">RID 10.255.1.2</text>
  <text class="sub" x="560" y="268">cluster 0.0.0.100</text>
  <rect x="60" y="370" width="240" height="80" rx="8" fill="#2ECC71" stroke="#1B7A43" stroke-width="2"/>
  <text class="lbl" x="180" y="392">leaf1</text>
  <text class="sub" x="180" y="410">MLAG/leaf1 — ASN 4200000010</text>
  <text class="sub" x="180" y="424">RID 10.255.10.1, anycast 10.255.10.100</text>
  <rect x="320" y="370" width="240" height="80" rx="8" fill="#2ECC71" stroke="#1B7A43" stroke-width="2"/>
  <text class="lbl" x="440" y="392">leaf2</text>
  <text class="sub" x="440" y="410">MLAG/leaf2 — ASN 4200000011</text>
  <text class="sub" x="440" y="424">RID 10.255.10.2, anycast 10.255.10.100</text>
  <rect x="600" y="370" width="220" height="80" rx="8" fill="#2ECC71" stroke="#1B7A43" stroke-width="2"/>
  <text class="lbl" x="710" y="392">leaf3</text>
  <text class="sub" x="710" y="410">EVPN-MH leaf3 — ASN 4200000012</text>
  <text class="sub" x="710" y="424">RID 10.255.10.3</text>
  <rect x="840" y="370" width="220" height="80" rx="8" fill="#2ECC71" stroke="#1B7A43" stroke-width="2"/>
  <text class="lbl" x="950" y="392">leaf4</text>
  <text class="sub" x="950" y="410">EVPN-MH leaf4 — ASN 4200000013</text>
  <text class="sub" x="950" y="424">RID 10.255.10.4</text>
  <rect x="1080" y="370" width="200" height="80" rx="8" fill="#E67E22" stroke="#9C5413" stroke-width="2"/>
  <text class="lbl" x="1180" y="392">bl1</text>
  <text class="sub" x="1180" y="410">BorderLeaf — ASN 4200000020</text>
  <text class="sub" x="1180" y="424">RID 10.255.20.1</text>
  <rect x="1300" y="370" width="200" height="80" rx="8" fill="#E67E22" stroke="#9C5413" stroke-width="2"/>
  <text class="lbl" x="1400" y="392">bl2</text>
  <text class="sub" x="1400" y="410">BorderLeaf — ASN 4200000021</text>
  <text class="sub" x="1400" y="424">RID 10.255.20.2</text>
  <rect x="30" y="580" width="150" height="60" rx="6" fill="#E74C3C" stroke="#922B21" stroke-width="2"/>
  <text class="lbl" x="105" y="602">srv-mlag-red</text>
  <text class="sub" x="105" y="620">bond0 LACP</text>
  <text class="sub" x="105" y="634">10.10.10.11/24</text>
  <rect x="200" y="580" width="150" height="60" rx="6" fill="#3498DB" stroke="#1F5F8C" stroke-width="2"/>
  <text class="lbl" x="275" y="602">srv-mlag-blue</text>
  <text class="sub" x="275" y="620">bond0 LACP</text>
  <text class="sub" x="275" y="634">10.20.20.11/24</text>
  <rect x="370" y="580" width="150" height="60" rx="6" fill="#27AE60" stroke="#155F33" stroke-width="2"/>
  <text class="lbl" x="445" y="602">srv-mlag-green</text>
  <text class="sub" x="445" y="620">bond0 LACP</text>
  <text class="sub" x="445" y="634">10.30.30.11/24</text>
  <rect x="560" y="580" width="150" height="60" rx="6" fill="#E74C3C" stroke="#922B21" stroke-width="2"/>
  <text class="lbl" x="635" y="602">srv-mh-red</text>
  <text class="sub" x="635" y="620">bond0 LACP-ESI</text>
  <text class="sub" x="635" y="634">10.10.11.11/24</text>
  <rect x="720" y="580" width="150" height="60" rx="6" fill="#3498DB" stroke="#1F5F8C" stroke-width="2"/>
  <text class="lbl" x="795" y="602">srv-mh-blue</text>
  <text class="sub" x="795" y="620">bond0 LACP-ESI</text>
  <text class="sub" x="795" y="634">10.20.21.11/24</text>
  <rect x="880" y="580" width="150" height="60" rx="6" fill="#27AE60" stroke="#155F33" stroke-width="2"/>
  <text class="lbl" x="955" y="602">srv-mh-green</text>
  <text class="sub" x="955" y="620">bond0 LACP-ESI</text>
  <text class="sub" x="955" y="634">10.30.31.11/24</text>
  <rect x="600" y="670" width="150" height="60" rx="6" fill="#E74C3C" stroke="#922B21" stroke-width="2"/>
  <text class="lbl" x="675" y="692">srv-solo</text>
  <text class="sub" x="675" y="710">single-attached</text>
  <text class="sub" x="675" y="724">10.10.12.11/24</text>
  <rect x="880" y="670" width="150" height="60" rx="6" fill="#E74C3C" stroke="#922B21" stroke-width="2"/>
  <text class="lbl" x="955" y="692">srv-leaf4</text>
  <text class="sub" x="955" y="710">single-attached</text>
  <text class="sub" x="955" y="724">10.10.15.11/24</text>
  <rect x="1060" y="580" width="150" height="60" rx="6" fill="#E74C3C" stroke="#922B21" stroke-width="2"/>
  <text class="lbl" x="1135" y="602">srv-bl1</text>
  <text class="sub" x="1135" y="620">single-attached</text>
  <text class="sub" x="1135" y="634">10.10.13.11/24</text>
  <rect x="1320" y="580" width="150" height="60" rx="6" fill="#E74C3C" stroke="#922B21" stroke-width="2"/>
  <text class="lbl" x="1395" y="602">srv-bl2</text>
  <text class="sub" x="1395" y="620">single-attached</text>
  <text class="sub" x="1395" y="634">10.10.14.11/24</text>
</svg>
